<?xml version="1.0" encoding="utf-8"?>
<!-- Svg Vector Icons : http://www.onlinewebfonts.com/icon -->
<!DOCTYPE svg PUBLIC "-//W3C//DTD SVG 1.1//EN" "http://www.w3.org/Graphics/SVG/1.1/DTD/svg11.dtd">
<svg version="1.1" xmlns="http://www.w3.org/2000/svg" xmlns:xlink="http://www.w3.org/1999/xlink" x="0px" y="0px" viewBox="0 0 1000 1000" enable-background="new 0 0 1000 1000" xml:space="preserve">
<metadata> Svg Vector Icons : http://www.onlinewebfonts.com/icon </metadata>
<g><g><g><path d="M921.3,428.1c-10.8,0-19.5,8.7-19.5,19.5v218.1c0,50.2-40.8,91-91,91H106l165.1-165.2c7.6-7.6,7.6-19.9,0-27.6c-7.6-7.6-19.9-7.6-27.6,0L45.2,762.4c-1.8,1.8-3.2,4-4.2,6.3c-2,4.8-2,10.1,0,14.9c1,2.4,2.4,4.5,4.2,6.3l194.3,194.3c3.8,3.8,8.8,5.7,13.8,5.7c5,0,10-1.9,13.8-5.7c7.6-7.6,7.6-19.9,0-27.6L106,795.7h704.8c71.7,0,130-58.3,130-130V447.6C940.8,436.8,932.1,428.1,921.3,428.1z"/><path d="M954.8,210.1L760.5,15.7c-7.6-7.6-19.9-7.6-27.5,0c-7.6,7.6-7.6,20,0,27.6L896,206.4H169.4c-71.7,0-130,58.3-130,130v218.4c0,10.8,8.7,19.5,19.5,19.5c10.8,0,19.5-8.7,19.5-19.5V336.4c0-50.2,40.8-91,91-91H892L728.9,408.5c-7.6,7.6-7.6,19.9,0,27.5c3.8,3.8,8.8,5.7,13.8,5.7c5,0,10-1.9,13.8-5.7l198.4-198.4C962.4,230,962.4,217.7,954.8,210.1z"/></g></g><g></g><g></g><g></g><g></g><g></g><g></g><g></g><g></g><g></g><g></g><g></g><g></g><g></g><g></g><g></g></g>
</svg>