<?xml version="1.0" encoding="utf-8"?>
<!-- Generator: Adobe Illustrator 23.0.3, SVG Export Plug-In . SVG Version: 6.00 Build 0)  -->
<svg version="1.1" id="Capa_1" xmlns="http://www.w3.org/2000/svg" xmlns:xlink="http://www.w3.org/1999/xlink" x="0px" y="0px"
	 viewBox="0 0 160.1 160.1" style="enable-background:new 0 0 160.1 160.1;" xml:space="preserve">
<style type="text/css">
	.st0{fill:url(#SVGID_1_);}
	.st1{fill:url(#SVGID_2_);}
	.st2{fill:url(#SVGID_3_);}
	.st3{fill:url(#SVGID_4_);}
	.st4{fill:url(#SVGID_5_);}
	.st5{fill:url(#SVGID_6_);}
	.st6{fill:url(#SVGID_7_);}
	.st7{fill:url(#SVGID_8_);}
	.st8{fill:url(#SVGID_9_);}
	.st9{fill:url(#SVGID_10_);}
	.st10{fill:url(#SVGID_11_);}
	.st11{fill:url(#SVGID_12_);}
	.st12{fill:url(#SVGID_13_);}
	.st13{fill:url(#SVGID_14_);}
	.st14{fill:url(#SVGID_15_);}
	.st15{fill:url(#SVGID_16_);}
	.st16{fill:url(#SVGID_17_);}
	.st17{fill:url(#SVGID_18_);}
	.st18{fill:url(#SVGID_19_);}
	.st19{fill:url(#SVGID_20_);}
	.st20{fill:url(#SVGID_21_);}
	.st21{fill:url(#SVGID_22_);}
	.st22{fill:url(#SVGID_23_);}
	.st23{fill:url(#SVGID_24_);}
	.st24{fill:url(#SVGID_25_);}
	.st25{fill:url(#SVGID_26_);}
	.st26{fill:url(#SVGID_27_);}
	.st27{fill:url(#SVGID_28_);}
	.st28{fill:url(#SVGID_29_);}
	.st29{fill:url(#SVGID_30_);}
	.st30{fill:url(#SVGID_31_);}
	.st31{fill:url(#SVGID_32_);}
	.st32{fill:url(#SVGID_33_);}
	.st33{fill:url(#SVGID_34_);}
	.st34{fill:url(#SVGID_35_);}
	.st35{fill:url(#SVGID_36_);}
	.st36{fill:url(#SVGID_37_);}
	.st37{fill:url(#SVGID_38_);}
	.st38{fill:url(#SVGID_39_);}
	.st39{fill:url(#SVGID_40_);}
	.st40{fill:url(#SVGID_41_);}
	.st41{fill:url(#SVGID_42_);}
	.st42{fill:url(#SVGID_43_);}
	.st43{fill:url(#SVGID_44_);}
	.st44{fill:url(#SVGID_45_);}
	.st45{fill:url(#SVGID_46_);}
	.st46{fill:url(#SVGID_47_);}
	.st47{fill:url(#SVGID_48_);}
	.st48{fill:#FE0000;}
	.st49{fill:#F90B22;}
	.st50{fill:#FDC324;}
	.st51{fill:#6F106E;}
	.st52{fill:#CC33AF;}
	.st53{fill:#682CC6;}
	.st54{fill:#54548A;}
	.st55{fill:#00BD49;}
	.st56{fill:#0390BE;}
	.st57{fill:#050505;}
	.st58{fill:url(#SVGID_49_);}
</style>
<g>
	<path d="M6.2,60.2c0,2.5,2,4.6,4.6,4.6c1.2,0,2.4-0.5,3.2-1.3c0.9-0.9,1.3-2,1.3-3.2V25.1l45.6,45.6c1.8,1.8,4.7,1.8,6.4,0
		c1.8-1.8,1.8-4.7,0-6.4L21.9,18.8l33.9,0c1.2,0,2.4-0.5,3.2-1.3s1.3-2,1.3-3.2S59.9,11.9,59,11c-0.9-0.9-2-1.3-3.2-1.3l-49.6,0
		L6.2,60.2z"/>
	<path d="M6.2,106.5c0-2.5,2-4.6,4.6-4.6c1.2,0,2.4,0.5,3.2,1.3c0.9,0.9,1.3,2,1.3,3.2v35.1L60.9,96c1.8-1.8,4.7-1.8,6.4,0
		c1.8,1.8,1.8,4.7,0,6.4l-45.5,45.5l33.9,0c1.2,0,2.4,0.5,3.2,1.3c0.9,0.9,1.3,2,1.3,3.2c0,1.2-0.5,2.4-1.3,3.2
		c-0.9,0.9-2,1.3-3.2,1.3l-49.6,0L6.2,106.5z"/>
	<path d="M153.9,60.2c0,2.5-2,4.6-4.6,4.6c-1.2,0-2.4-0.5-3.2-1.3c-0.9-0.9-1.3-2-1.3-3.2V25.1L99.1,70.7c-1.8,1.8-4.7,1.8-6.4,0
		c-1.8-1.8-1.8-4.7,0-6.4l45.5-45.5l-33.9,0c-1.2,0-2.4-0.5-3.2-1.3c-0.9-0.9-1.3-2-1.3-3.2s0.5-2.4,1.3-3.2c0.9-0.9,2-1.3,3.2-1.3
		l49.6,0L153.9,60.2z"/>
	<path d="M153.9,106.5c0-2.5-2-4.6-4.6-4.6c-1.2,0-2.4,0.5-3.2,1.3c-0.9,0.9-1.3,2-1.3,3.2v35.1L99.1,96c-1.8-1.8-4.7-1.8-6.4,0
		c-1.8,1.8-1.8,4.7,0,6.4l45.5,45.5l-33.9,0c-1.2,0-2.4,0.5-3.2,1.3c-0.9,0.9-1.3,2-1.3,3.2c0,1.2,0.5,2.4,1.3,3.2
		c0.9,0.9,2,1.3,3.2,1.3l49.6,0L153.9,106.5z"/>
</g>
</svg>
