<svg width="100%" height="100%" viewBox="0 0 780 501" version="1.1" xmlns="http://www.w3.org/2000/svg" xmlns:xlink="http://www.w3.org/1999/xlink" xml:space="preserve" xmlns:serif="http://www.serif.com/" style="fill-rule:evenodd;clip-rule:evenodd;stroke-linejoin:round;stroke-miterlimit:2;"><g><path d="M54.992,0c-30.365,0 -54.992,24.63 -54.992,55.004l0,390.992c0,30.38 24.619,55.004 54.992,55.004l670.016,0c30.365,0 54.992,-24.63 54.992,-55.004l0,-390.992c0,-30.38 -24.619,-55.004 -54.992,-55.004l-670.016,0Z" style="fill:rgb(247,247,247);"/><g><path d="M515.551,209.243c-2.905,19.077 -17.473,19.077 -31.561,19.077l-8.017,0l5.626,-35.618c0.343,-2.151 2.193,-3.734 4.372,-3.734l3.679,0c9.593,0 18.652,0 23.325,5.461c2.789,3.269 3.631,8.12 2.576,14.814m-6.132,-49.773l-53.145,0c-3.621,0.002 -6.735,2.66 -7.305,6.235l-21.474,136.268c-0.036,0.227 -0.054,0.456 -0.054,0.685c0,2.429 1.997,4.429 4.425,4.434l27.272,0c2.542,0 4.707,-1.851 5.105,-4.358l6.098,-38.646c0.562,-3.584 3.659,-6.236 7.291,-6.236l16.815,0c35.014,0 55.214,-16.931 60.49,-50.513c2.378,-14.678 0.096,-26.217 -6.777,-34.295c-7.558,-8.881 -20.953,-13.581 -38.735,-13.581" style="fill:rgb(0,156,222);fill-rule:nonzero;"/><path d="M136.493,209.243c-2.906,19.077 -17.473,19.077 -31.568,19.077l-8.017,0l5.625,-35.618c0.343,-2.151 2.193,-3.734 4.372,-3.734l3.68,0c9.593,0 18.651,0 23.324,5.461c2.796,3.269 3.639,8.12 2.584,14.814m-6.133,-49.773l-53.145,0c-3.632,0 -6.729,2.645 -7.298,6.235l-21.481,136.268c-0.036,0.229 -0.054,0.46 -0.054,0.692c0,2.428 1.998,4.426 4.426,4.427l25.38,0c3.632,0 6.722,-2.645 7.291,-6.236l5.803,-36.761c0.562,-3.591 3.659,-6.236 7.291,-6.236l16.815,0c35.014,0 55.214,-16.938 60.49,-50.52c2.378,-14.678 0.096,-26.217 -6.776,-34.295c-7.558,-8.881 -20.954,-13.581 -38.735,-13.581m123.379,98.705c-2.467,14.54 -13.999,24.304 -28.724,24.304c-7.38,0 -13.293,-2.378 -17.089,-6.873c-3.769,-4.454 -5.181,-10.806 -3.988,-17.87c2.288,-14.417 14.019,-24.489 28.518,-24.489c7.229,0 13.088,2.398 16.966,6.934c3.899,4.57 5.434,10.956 4.317,17.994m35.466,-49.541l-25.448,0c-2.177,-0.003 -4.049,1.598 -4.386,3.748l-1.11,7.112l-1.781,-2.576c-5.509,-7.996 -17.795,-10.676 -30.061,-10.676c-28.114,0 -52.13,21.31 -56.804,51.186c-2.432,14.917 1.021,29.162 9.477,39.105c7.763,9.133 18.843,12.936 32.047,12.936c22.667,0 35.234,-14.553 35.234,-14.553l-1.138,7.071c-0.036,0.229 -0.054,0.46 -0.054,0.692c0,2.428 1.998,4.426 4.426,4.426c0.003,0 0.005,0 0.007,0l22.913,0c3.632,0 6.729,-2.638 7.298,-6.235l13.759,-87.111c0.035,-0.227 0.053,-0.456 0.053,-0.685c0,-2.432 -2.001,-4.433 -4.433,-4.433c-0.002,0 -0.004,0 -0.006,0" style="fill:rgb(0,48,135);fill-rule:nonzero;"/><path d="M632.804,258.168c-2.466,14.54 -13.998,24.304 -28.724,24.304c-7.379,0 -13.293,-2.378 -17.089,-6.873c-3.768,-4.454 -5.18,-10.806 -3.988,-17.87c2.289,-14.417 14.013,-24.489 28.519,-24.489c7.229,0 13.087,2.398 16.966,6.934c3.898,4.57 5.433,10.956 4.316,17.994m35.467,-49.541l-25.449,0c-2.176,-0.003 -4.049,1.598 -4.385,3.748l-1.11,7.112l-1.782,-2.576c-5.509,-7.996 -17.795,-10.676 -30.06,-10.676c-28.107,0 -52.124,21.31 -56.804,51.186c-2.432,14.917 1.028,29.162 9.483,39.105c7.764,9.133 18.844,12.936 32.048,12.936c22.673,0 35.24,-14.553 35.24,-14.553l-1.137,7.071c-0.038,0.233 -0.057,0.469 -0.057,0.706c0,2.42 1.992,4.412 4.413,4.412c0.003,0 0.006,0 0.008,0l22.907,0c3.632,0 6.729,-2.638 7.304,-6.235l13.759,-87.111c0.036,-0.227 0.054,-0.456 0.054,-0.685c0,-2.432 -2.002,-4.433 -4.434,-4.433c-0.001,0 -0.003,0 -0.005,0" style="fill:rgb(0,156,222);fill-rule:nonzero;"/><path d="M424.754,208.634l-25.586,0c-2.446,0 -4.728,1.212 -6.098,3.241l-35.289,51.966l-14.958,-49.938c-0.934,-3.119 -3.822,-5.272 -7.078,-5.276l-25.14,0c-2.432,0.001 -4.432,2.002 -4.432,4.433c0,0.487 0.081,0.971 0.238,1.432l28.162,82.678l-26.49,37.378c-0.528,0.748 -0.811,1.641 -0.811,2.556c0,2.43 1.999,4.431 4.429,4.433l25.558,0c2.412,0 4.68,-1.185 6.064,-3.172l85.063,-122.776c0.516,-0.742 0.793,-1.625 0.793,-2.529c0,-2.428 -1.997,-4.425 -4.425,-4.426" style="fill:rgb(0,48,135);fill-rule:nonzero;"/><path d="M698.263,163.218l-21.817,138.762c-0.036,0.227 -0.054,0.456 -0.054,0.685c0,2.432 2.001,4.433 4.432,4.433l21.934,0c3.631,0 6.728,-2.644 7.297,-6.235l21.509,-136.275c0.036,-0.229 0.054,-0.46 0.054,-0.692c0,-2.428 -1.998,-4.426 -4.426,-4.426c-0.002,0 -0.004,0 -0.007,0l-24.544,0c-2.174,-0.006 -4.045,1.593 -4.378,3.741" style="fill:rgb(0,156,222);fill-rule:nonzero;"/></g></g></svg>